<?xml version="1.0" encoding="UTF-8" standalone="no"?>
<!DOCTYPE svg PUBLIC "-//W3C//DTD SVG 1.1//EN" "http://www.w3.org/Graphics/SVG/1.1/DTD/svg11.dtd">
<svg width="100%" height="100%" viewBox="0 0 289 289" version="1.1" xmlns="http://www.w3.org/2000/svg" xmlns:xlink="http://www.w3.org/1999/xlink" xml:space="preserve" xmlns:serif="http://www.serif.com/" style="fill-rule:evenodd;clip-rule:evenodd;stroke-linejoin:round;stroke-miterlimit:2;">
    <g transform="matrix(0.873416,0,0,0.873416,21.0376,-1.58076)">
        <g>
            <g id="XMLID_27_">
                <g>
                    <path d="M259.939,48.668C266.539,48.668 271.89,54.083 271.89,60.747C271.89,67.411 266.539,72.826 259.939,72.826C253.371,72.826 247.988,67.411 247.988,60.747C247.988,54.083 253.371,48.668 259.939,48.668Z" style="fill:rgb(78,133,245);fill-rule:nonzero;"/>
                    <path d="M187.946,156.546C194.514,156.546 199.897,161.961 199.897,168.625C199.897,175.289 194.514,180.704 187.946,180.704C181.346,180.704 175.995,175.289 175.995,168.625C175.995,161.961 181.346,156.546 187.946,156.546Z" style="fill:rgb(78,133,245);fill-rule:nonzero;"/>
                    <path d="M93.588,119.54C100.188,119.54 105.539,124.955 105.539,131.619C105.539,138.283 100.188,143.698 93.588,143.698C87.02,143.698 81.637,138.283 81.637,131.619C81.637,124.955 87.02,119.54 93.588,119.54Z" style="fill:rgb(78,133,245);fill-rule:nonzero;"/>
                    <path d="M259.939,32.039C275.606,32.039 288.358,44.919 288.358,60.747C288.358,76.575 275.606,89.455 259.939,89.455C257.728,89.455 255.614,89.167 253.531,88.686L211.142,152.093C214.41,156.771 216.364,162.474 216.364,168.626C216.364,184.454 203.612,197.334 187.945,197.334C172.278,197.334 159.526,184.454 159.526,168.626C159.526,168.017 159.59,167.441 159.622,166.832L116.048,149.146C110.858,155.938 102.719,160.328 93.588,160.328C90.48,160.328 87.468,159.815 84.649,158.854L49.822,208.772C54.179,213.834 56.839,220.402 56.839,227.579C56.839,243.439 44.087,256.319 28.42,256.319C12.753,256.319 0,243.438 0,227.578C0,211.75 12.752,198.87 28.419,198.87C31.014,198.87 33.481,199.254 35.852,199.927L71.224,149.24C67.443,144.37 65.168,138.282 65.168,131.618C65.168,115.79 77.92,102.91 93.587,102.91C109.254,102.91 122.006,115.79 122.006,131.618C122.006,132.291 121.942,132.932 121.91,133.572L165.388,151.226C170.578,144.369 178.749,139.916 187.944,139.916C191.532,139.916 194.961,140.621 198.101,141.838L239.24,80.354C234.466,75.196 231.518,68.339 231.518,60.746C231.52,44.919 244.272,32.039 259.939,32.039ZM271.89,60.747C271.89,54.083 266.539,48.668 259.939,48.668C253.371,48.668 247.988,54.083 247.988,60.747C247.988,67.411 253.371,72.826 259.939,72.826C266.54,72.826 271.89,67.411 271.89,60.747ZM199.897,168.625C199.897,161.961 194.514,156.546 187.946,156.546C181.346,156.546 175.995,161.961 175.995,168.625C175.995,175.289 181.346,180.704 187.946,180.704C194.514,180.704 199.897,175.289 199.897,168.625ZM105.539,131.619C105.539,124.955 100.188,119.54 93.588,119.54C87.02,119.54 81.637,124.955 81.637,131.619C81.637,138.283 87.02,143.698 93.588,143.698C100.189,143.698 105.539,138.283 105.539,131.619ZM40.37,227.578C40.37,220.946 35.019,215.531 28.419,215.531C21.819,215.531 16.468,220.946 16.468,227.578C16.468,234.242 21.819,239.657 28.419,239.657C35.019,239.657 40.37,234.242 40.37,227.578Z" style="fill:rgb(45,33,63);fill-rule:nonzero;"/>
                    <path d="M28.419,215.531C35.019,215.531 40.37,220.946 40.37,227.578C40.37,234.242 35.019,239.657 28.419,239.657C21.819,239.657 16.468,234.242 16.468,227.578C16.468,220.946 21.819,215.531 28.419,215.531Z" style="fill:rgb(78,133,245);fill-rule:nonzero;"/>
                </g>
            </g>
        </g>
    </g>
</svg>
